999
Created from RPA-4 - Tool for Rocket Propulsion Analysis
999
(C) 2009-2022 RP Software+Engineering UG
999
https://www.rocket-propulsion.com
999
Nessus Block 0
  0
SECTION
  2
HEADER
  9
$ACADVER
  1
AC1014
  9
$HANDSEED
  5
FFFF
  9
$MEASUREMENT
 70
1
  9
$MEASUREINIT 
 70
1
  9
$INSUNITS
 70
4
  9
$DIMSTYLE
  2
Standard
  9
$DIMUNIT
 70
2
  9
$DIMTXT
 40
2.500000
  9
$DIMASZ
 40
2.500000
  9
$DIMEXE
 40
1.250000
  9
$DIMEXO
 40
0.625000
  9
$DIMGAP
 40
0.625000
  0
ENDSEC
  0
SECTION
  2
TABLES
  0
TABLE
  2
VPORT
  5
141
100
AcDbSymbolTable
  0
VPORT
  5
142
100
AcDbSymbolTableRecord
100
AcDbViewportTableRecord
  2
*Active
 70
0
 10
0.000000
 20
0.000000
 11
64.323166
 21
21.456457
 12
32.161583
 22
10.728228
 13
0.000000
 23
0.000000
 14
10.000000
 24
10.000000
 15
10.000000
 25
10.000000
 16
0.000000
 26
0.000000
 36
1.000000
 17
0.000000
 27
0.000000
 37
0.000000
 40
21.456457
 41
1.927984
 42
50.000000
 43
0.000000
 44
0.000000
 50
0.000000
 51
0.000000
 71
1
 72
100.000000
 73
1
 74
3
 75
1
 76
1
 77
0
 78
0
281
0
 65
1
  0
ENDTAB
  0
TABLE
  2
LTYPE
  5
143
100
AcDbSymbolTable
 70
10
  0
LTYPE
  5
144
100
AcDbSymbolTableRecord
100
AcDbLinetypeTableRecord
  2
ByBlock
 70
0
  3

 72
65
 73
0
 40
0.000000
  0
LTYPE
  5
145
100
AcDbSymbolTableRecord
100
AcDbLinetypeTableRecord
  2
ByLayer
 70
0
  3

 72
65
 73
0
 40
0.000000
  0
LTYPE
  5
146
100
AcDbSymbolTableRecord
100
AcDbLinetypeTableRecord
  2
CONTINUOUS
 70
0
  3
Solid line
 72
65
 73
0
 40
0.000000
  0
LTYPE
  5
147
100
AcDbSymbolTableRecord
100
AcDbLinetypeTableRecord
  2
DOT
 70
0
  3
Dot . . . . . . . . . . . . . . . . . . . . . .
 72
65
 73
2
 40
6.350000
 49
0.000000
 74
0.000000
 49
-6.350000
 74
0.000000
  0
LTYPE
  5
148
100
AcDbSymbolTableRecord
100
AcDbLinetypeTableRecord
  2
DOT2
 70
0
  3
Dot (.5x) .....................................
 72
65
 73
2
 40
3.175000
 49
0.000000
 74
0.000000
 49
-3.175000
 74
0.000000
  0
LTYPE
  5
149
100
AcDbSymbolTableRecord
100
AcDbLinetypeTableRecord
  2
DOTX2
 70
0
  3
Dot (2x) .  .  .  .  .  .  .  .  .  .  .  .  .
 72
65
 73
2
 40
12.700000
 49
0.000000
 74
0.000000
 49
-12.700000
 74
0.000000
  0
LTYPE
  5
14A
100
AcDbSymbolTableRecord
100
AcDbLinetypeTableRecord
  2
DASHED
 70
0
  3
Dashed __ __ __ __ __ __ __ __ __ __ __ __ __ _
 72
65
 73
2
 40
19.050000
 49
12.700000
 74
0.000000
 49
-6.350000
 74
0.000000
  0
LTYPE
  5
14B
100
AcDbSymbolTableRecord
100
AcDbLinetypeTableRecord
  2
DASHED2
 70
0
  3
Dashed (.5x) _ _ _ _ _ _ _ _ _ _ _ _ _ _ _ _ _
 72
65
 73
2
 40
9.525000
 49
6.350000
 74
0.000000
 49
-3.175000
 74
0.000000
  0
LTYPE
  5
14C
100
AcDbSymbolTableRecord
100
AcDbLinetypeTableRecord
  2
DASHDOT
 70
0
  3
Dash dot __ . __ . __ . __ . __ . __ . __ . __
 72
65
 73
4
 40
25.400000
 49
12.700000
 74
0.000000
 49
-6.350000
 74
0.000000
 49
0.000000
 74
0.000000
 49
-6.350000
 74
0.000000
  0
LTYPE
  5
14D
100
AcDbSymbolTableRecord
100
AcDbLinetypeTableRecord
  2
DASHDOT2
 70
0
  3
Dash dot (.5x) _._._._._._._._._._._._._._._.
 72
65
 73
4
 40
12.700000
 49
6.350000
 74
0.000000
 49
-3.175000
 74
0.000000
 49
0.000000
 74
0.000000
 49
-3.175000
 74
0.000000
  0
LTYPE
  5
14E
100
AcDbSymbolTableRecord
100
AcDbLinetypeTableRecord
  2
DASHDOTX2
 70
0
  3
Dash dot (2x) ____  .  ____  .  ____  .  ___
 72
65
 73
4
 40
50.800000
 49
25.400000
 74
0.000000
 49
-12.700000
 74
0.000000
 49
0.000000
 74
0.000000
 49
-12.700000
 74
0.000000
  0
LTYPE
  5
14F
100
AcDbSymbolTableRecord
100
AcDbLinetypeTableRecord
  2
DIVIDE
 70
0
  3
Divide ____ . . ____ . . ____ . . ____ . . ____
 72
65
 73
6
 40
31.750000
 49
12.700000
 74
0.000000
 49
-6.350000
 74
0.000000
 49
0.000000
 74
0.000000
 49
-6.350000
 74
0.000000
 49
0.000000
 74
0.000000
 49
-6.350000
 74
0.000000
  0
LTYPE
  5
150
100
AcDbSymbolTableRecord
100
AcDbLinetypeTableRecord
  2
DIVIDEX2
 70
0
  3
Divide (2x) ________  .  .  ________  .  .  _
 72
65
 73
6
 40
63.500000
 49
25.400000
 74
0.000000
 49
-12.700000
 74
0.000000
 49
0.000000
 74
0.000000
 49
-12.700000
 74
0.000000
 49
0.000000
 74
0.000000
 49
-12.700000
 74
0.000000
  0
LTYPE
  5
151
100
AcDbSymbolTableRecord
100
AcDbLinetypeTableRecord
  2
CENTER
 70
0
  3
Center ____ _ ____ _ ____ _ ____ _ ____ _ ____
 72
65
 73
4
 40
50.800000
 49
31.750000
 74
0.000000
 49
-6.350000
 74
0.000000
 49
6.350000
 74
0.000000
 49
-6.350000
 74
0.000000
  0
LTYPE
  5
152
100
AcDbSymbolTableRecord
100
AcDbLinetypeTableRecord
  2
CENTER2
 70
0
  3
Center (.5x) ___ _ ___ _ ___ _ ___ _ ___ _ ___
 72
65
 73
4
 40
28.575000
 49
19.050000
 74
0.000000
 49
-3.175000
 74
0.000000
 49
3.175000
 74
0.000000
 49
-3.175000
 74
0.000000
  0
LTYPE
  5
153
100
AcDbSymbolTableRecord
100
AcDbLinetypeTableRecord
  2
CENTERX2
 70
0
  3
Center (2x) ________  __  ________  __  _____
 72
65
 73
4
 40
101.600000
 49
63.500000
 74
0.000000
 49
-12.700000
 74
0.000000
 49
12.700000
 74
0.000000
 49
-12.700000
 74
0.000000
  0
LTYPE
  5
154
100
AcDbSymbolTableRecord
100
AcDbLinetypeTableRecord
  2
BORDER
 70
0
  3
Border __ __ . __ __ . __ __ . __ __ . __ __ .
 72
65
 73
6
 40
44.450000
 49
12.700000
 74
0.000000
 49
-6.350000
 74
0.000000
 49
12.700000
 74
0.000000
 49
-6.350000
 74
0.000000
 49
0.000000
 74
0.000000
 49
-6.350000
 74
0.000000
  0
LTYPE
  5
155
100
AcDbSymbolTableRecord
100
AcDbLinetypeTableRecord
  2
BORDER2
 70
0
  3
Border (.5x) __.__.__.__.__.__.__.__.__.__.__.
 72
65
 73
6
 40
22.225000
 49
6.350000
 74
0.000000
 49
-3.175000
 74
0.000000
 49
6.350000
 74
0.000000
 49
-3.175000
 74
0.000000
 49
0.000000
 74
0.000000
 49
-3.175000
 74
0.000000
  0
LTYPE
  5
156
100
AcDbSymbolTableRecord
100
AcDbLinetypeTableRecord
  2
BORDERX2
 70
0
  3
Border (2x) ____  ____  .  ____  ____  .  ___
 72
65
 73
6
 40
88.900000
 49
25.400000
 74
0.000000
 49
-12.700000
 74
0.000000
 49
25.400000
 74
0.000000
 49
-12.700000
 74
0.000000
 49
0.000000
 74
0.000000
 49
-12.700000
 74
0.000000
  0
ENDTAB
  0
TABLE
  2
LAYER
  5
157
100
AcDbSymbolTable
  0
LAYER
  5
158
100
AcDbSymbolTableRecord
100
AcDbLayerTableRecord
  2
0
 70
0
 62
1
  6
Continuous
390
F
  0
LAYER
  5
159
100
AcDbSymbolTableRecord
100
AcDbLayerTableRecord
  2
Dimensions
 70
0
 62
5
  6
Continuous
390
F
  0
ENDTAB
  0
TABLE
  2
STYLE
  5
15A
100
AcDbSymbolTable
  0
STYLE
  5
15B
100
AcDbSymbolTableRecord
100
AcDbTextStyleTableRecord
  2
Standard
  3
txt
 70
0
 71
0
 40
0.000000
 41
0.750000
 42
0.000000
 50
0.000000
  0
ENDTAB
  0
TABLE
  2
VIEW
  5
15C
100
AcDbSymbolTable
 70
0
 40
64.323166
 41
21.456457
  0
ENDTAB
  0
TABLE
  2
UCS
  5
15D
100
AcDbSymbolTable
 70
0
  0
ENDTAB
  0
TABLE
  2
APPID
  5
9
100
AcDbSymbolTable
 70
1
  0
APPID
  5
12
100
AcDbSymbolTableRecord
100
AcDbRegAppTableRecord
  2
ACAD
 70
0
  0
ENDTAB
  0
TABLE
  2
DIMSTYLE
  5
A
100
AcDbSymbolTable
 70
1
 71
0
  0
DIMSTYLE
105
27
100
AcDbSymbolTableRecord
100
AcDbDimStyleTableRecord
 70
0
  2
Standard
176
5
 46
0.000000
177
5
 44
1.250000
 42
0.625000
  6
ClosedFilled
  7
ClosedFilled
 41
2.500000
340
0
178
5
140
2.500000
 77
1
147
0.625000
  0
ENDTAB
  0
TABLE
  2
BLOCK_RECORD
  5
15E
100
AcDbSymbolTable
 70
1
  0
BLOCK_RECORD
  5
15F
100
AcDbSymbolTableRecord
100
AcDbBlockTableRecord
  2
*Model_Space
340
22
  0
BLOCK_RECORD
  5
160
100
AcDbSymbolTableRecord
100
AcDbBlockTableRecord
  2
*Paper_Space
340
1E
  0
BLOCK_RECORD
  5
161
100
AcDbSymbolTableRecord
100
AcDbBlockTableRecord
  2
*Paper_Space0
340
26
  0
BLOCK_RECORD
  5
162
100
AcDbSymbolTableRecord
100
AcDbBlockTableRecord
  2
CHAMBER_COUNTOR
340
26
  0
ENDTAB
  0
ENDSEC
  0
SECTION
  2
BLOCKS
  0
BLOCK
  5
163
100
AcDbEntity
  8
0
100
AcDbBlockBegin
  2
*Model_Space
 70
1
 10
0.000000
 20
0.000000
  3
*Model_Space
  0
ENDBLK
  5
164
100
AcDbEntity
  8
0
100
AcDbBlockEnd
  0
BLOCK
  5
165
100
AcDbEntity
  8
0
100
AcDbBlockBegin
  2
*Paper_Space
 70
1
 10
0.000000
 20
0.000000
  3
*Paper_Space
  0
ENDBLK
  5
166
100
AcDbEntity
  8
0
100
AcDbBlockEnd
  0
BLOCK
  5
167
100
AcDbEntity
  8
0
100
AcDbBlockBegin
  2
*Paper_Space0
 70
1
 10
0.000000
 20
0.000000
  3
*Paper_Space0
  0
ENDBLK
  5
168
100
AcDbEntity
  8
0
100
AcDbBlockEnd
  0
BLOCK
  5
169
100
AcDbEntity
  8
0
100
AcDbBlockBegin
  2
CHAMBER_COUNTOR
 70
1
 10
0.000000
 20
0.000000
  3
CHAMBER_COUNTOR
  0
LINE
  5
16A
100
AcDbEntity
100
AcDbLine
  8
0
 62
256
  6
ByLayer
370
-1
 10
0.000000
 20
9.728069
 30
0.000000
 11
27.293725
 21
9.728069
 31
0.000000
  0
LINE
  5
16B
100
AcDbEntity
100
AcDbLine
  8
0
 62
256
  6
ByLayer
370
-1
 10
0.000000
 20
-9.728069
 30
0.000000
 11
27.293725
 21
-9.728069
 31
0.000000
  0
ARC
  5
16C
100
AcDbEntity
100
AcDbCircle
  8
0
 62
256
  6
ByLayer
370
-1
 10
27.293725
 20
-4.776729
 40
14.504798
100
AcDbArc
 50
60.000000
 51
90.000000
  0
ARC
  5
16D
100
AcDbEntity
100
AcDbCircle
  8
0
 62
256
  6
ByLayer
370
-1
 10
27.293725
 20
4.776729
 40
14.504798
100
AcDbArc
 50
270.000000
 51
300.000000
  0
LINE
  5
16E
100
AcDbEntity
100
AcDbLine
  8
0
 62
256
  6
ByLayer
370
-1
 10
34.546124
 20
7.784794
 30
0.000000
 11
37.911974
 21
5.841520
 31
0.000000
  0
LINE
  5
16F
100
AcDbEntity
100
AcDbLine
  8
0
 62
256
  6
ByLayer
370
-1
 10
34.546124
 20
-7.784794
 30
0.000000
 11
37.911974
 21
-5.841520
 31
0.000000
  0
ARC
  5
170
100
AcDbEntity
100
AcDbCircle
  8
0
 62
256
  6
ByLayer
370
-1
 10
41.560000
 20
12.160086
 40
7.296052
100
AcDbArc
 50
240.000000
 51
270.000000
  0
ARC
  5
171
100
AcDbEntity
100
AcDbCircle
  8
0
 62
256
  6
ByLayer
370
-1
 10
41.560000
 20
-12.160086
 40
7.296052
100
AcDbArc
 50
90.000000
 51
120.000000
  0
DIMENSION
  5
172
100
AcDbEntity
100
AcDbDimension
  8
Dimensions
 70
32
 62
256
  1
D19.4561
 10
-10.000000
 20
9.728069
 11
-12.000000
 21
0.000000
 53
90.000000
100
AcDbAlignedDimension
 13
0.000000
 23
-9.728069
 14
0.000000
 24
9.728069
 50
90.000000
100
AcDbRotatedDimension
  0
DIMENSION
  5
173
100
AcDbEntity
100
AcDbDimension
  8
Dimensions
 70
32
 62
256
  1
D9.7281
 10
74.323166
 20
4.864034
 11
72.323166
 21
0.000000
 53
90.000000
100
AcDbAlignedDimension
 13
41.560000
 23
-4.864034
 14
41.560000
 24
4.864034
 50
90.000000
100
AcDbRotatedDimension
  0
DIMENSION
  5
174
100
AcDbEntity
100
AcDbDimension
  8
Dimensions
 70
32
 62
256
 10
0.000000
 20
-20.728228
 11
13.646863
 21
-17.728228
100
AcDbAlignedDimension
 13
0.000000
 23
-9.728069
 14
27.293725
 24
-9.728069
 50
0.000000
100
AcDbRotatedDimension
  0
DIMENSION
  5
175
100
AcDbEntity
100
AcDbDimension
  8
Dimensions
 70
32
 62
256
 10
0.000000
 20
-30.728228
 11
20.780000
 21
-27.728228
100
AcDbAlignedDimension
 13
0.000000
 23
-9.728069
 14
41.560000
 24
-4.864034
 50
0.000000
100
AcDbRotatedDimension
  0
DIMENSION
  5
176
100
AcDbEntity
100
AcDbDimension
  8
Dimensions
 70
32
 62
256
 10
0.000000
 20
-40.728228
 11
32.161583
 21
-37.728228
100
AcDbAlignedDimension
 13
0.000000
 23
-9.728069
 14
64.323166
 24
-10.728228
 50
0.000000
100
AcDbRotatedDimension
  0
DIMENSION
  5
177
100
AcDbEntity
100
AcDbDimension
  8
Dimensions
 70
4
 62
256
  1
R14.5048
 10
27.293725
 20
-4.776729
 11
23.975467
 21
21.703458
100
AcDbRadialDimension
 15
27.393139
 25
9.727728
  0
DIMENSION
  5
178
100
AcDbEntity
100
AcDbDimension
  8
Dimensions
 70
4
 62
256
  1
R7.2961
 10
41.560000
 20
12.160086
 11
37.962099
 21
-2.159618
100
AcDbRadialDimension
 15
41.509994
 25
4.864206
  0
DIMENSION
  5
179
100
AcDbEntity
100
AcDbDimension
  8
Dimensions
 70
2
 62
256
 10
37.911974
 20
0.000000
 11
24.818055
 21
5.838596
100
AcDb2LineAngularDimension
 13
37.911974
 23
5.841520
 14
34.546124
 24
7.784794
 15
34.546124
 25
0.000000
 16
24.818055
 26
5.838596
  0
LWPOLYLINE
  5
17A
100
AcDbEntity
100
AcDbPolyline
  8
0
 62
256
  6
ByLayer
370
-1
 70
0
 43
0.000000
 90
200
 10
41.560000
 20
4.864034
 10
41.561144
 20
4.864035
 10
41.562288
 20
4.864036
 10
41.563432
 20
4.864038
 10
41.564576
 20
4.864040
 10
41.565719
 20
4.864043
 10
41.566863
 20
4.864047
 10
41.568007
 20
4.864052
 10
41.569151
 20
4.864057
 10
41.570295
 20
4.864063
 10
41.571439
 20
4.864070
 10
41.577158
 20
4.864114
 10
41.582878
 20
4.864175
 10
41.588597
 20
4.864254
 10
41.594316
 20
4.864351
 10
41.600036
 20
4.864466
 10
41.605755
 20
4.864598
 10
41.611474
 20
4.864748
 10
41.617194
 20
4.864915
 10
41.622913
 20
4.865100
 10
41.628633
 20
4.865302
 10
41.634352
 20
4.865523
 10
41.640071
 20
4.865760
 10
41.645791
 20
4.866016
 10
41.651510
 20
4.866289
 10
41.657230
 20
4.866580
 10
41.668668
 20
4.867215
 10
41.680107
 20
4.867920
 10
41.691546
 20
4.868697
 10
41.702985
 20
4.869544
 10
41.714423
 20
4.870463
 10
41.725862
 20
4.871452
 10
41.737301
 20
4.872513
 10
41.748740
 20
4.873645
 10
41.760179
 20
4.874849
 10
41.771617
 20
4.876124
 10
41.783056
 20
4.877472
 10
41.794495
 20
4.878891
 10
41.805934
 20
4.880382
 10
41.817372
 20
4.881946
 10
41.828811
 20
4.883582
 10
41.840250
 20
4.885291
 10
41.851689
 20
4.887073
 10
41.863128
 20
4.888928
 10
41.874566
 20
4.890856
 10
41.886005
 20
4.892857
 10
41.897444
 20
4.894933
 10
41.908883
 20
4.897083
 10
41.920321
 20
4.899307
 10
41.931760
 20
4.901605
 10
41.943199
 20
4.903978
 10
41.954638
 20
4.906427
 10
41.966077
 20
4.908951
 10
41.977515
 20
4.911551
 10
41.988954
 20
4.914227
 10
42.000393
 20
4.916979
 10
42.011832
 20
4.919808
 10
42.023270
 20
4.922715
 10
42.034709
 20
4.925698
 10
42.046148
 20
4.928760
 10
42.057587
 20
4.932142
 10
42.069026
 20
4.936085
 10
42.080464
 20
4.939370
 10
42.091903
 20
4.942458
 10
42.103342
 20
4.945734
 10
42.114781
 20
4.949581
 10
42.126219
 20
4.953457
 10
42.137658
 20
4.957091
 10
42.149097
 20
4.960268
 10
42.160536
 20
4.962898
 10
42.171975
 20
4.965650
 10
42.183413
 20
4.968526
 10
42.194852
 20
4.971525
 10
42.206291
 20
4.974807
 10
42.217730
 20
4.978145
 10
42.229168
 20
4.981510
 10
42.407438
 20
5.034554
 10
42.585708
 20
5.090736
 10
42.763977
 20
5.147037
 10
42.942247
 20
5.202839
 10
43.120517
 20
5.262740
 10
43.298786
 20
5.320580
 10
43.477056
 20
5.379807
 10
43.655326
 20
5.438951
 10
43.833595
 20
5.499560
 10
44.011865
 20
5.563597
 10
44.190135
 20
5.623182
 10
44.368404
 20
5.683485
 10
44.546674
 20
5.745776
 10
44.724944
 20
5.808328
 10
44.903213
 20
5.869945
 10
45.081483
 20
5.932634
 10
45.259752
 20
5.994677
 10
45.438022
 20
6.057453
 10
45.616292
 20
6.118913
 10
45.794561
 20
6.181429
 10
45.972831
 20
6.244464
 10
46.151101
 20
6.305757
 10
46.329370
 20
6.368522
 10
46.507640
 20
6.428910
 10
46.685910
 20
6.493565
 10
46.864179
 20
6.552916
 10
47.042449
 20
6.613834
 10
47.220719
 20
6.675716
 10
47.398988
 20
6.736695
 10
47.577258
 20
6.797614
 10
47.755528
 20
6.859124
 10
47.933797
 20
6.917580
 10
48.112067
 20
6.976772
 10
48.290337
 20
7.038072
 10
48.468606
 20
7.095435
 10
48.646876
 20
7.154155
 10
48.825145
 20
7.211932
 10
49.003415
 20
7.269409
 10
49.181685
 20
7.327695
 10
49.359954
 20
7.384045
 10
49.538224
 20
7.441419
 10
49.716494
 20
7.497344
 10
49.894763
 20
7.554159
 10
50.073033
 20
7.609687
 10
50.251303
 20
7.665028
 10
50.429572
 20
7.719585
 10
50.607842
 20
7.774742
 10
50.786112
 20
7.828635
 10
50.964381
 20
7.881160
 10
51.142651
 20
7.937003
 10
51.320921
 20
7.986688
 10
51.499190
 20
8.041813
 10
51.677460
 20
8.090909
 10
51.855730
 20
8.142248
 10
52.033999
 20
8.194048
 10
52.212269
 20
8.244654
 10
52.390538
 20
8.295194
 10
52.568808
 20
8.343547
 10
52.747078
 20
8.394377
 10
52.925347
 20
8.443727
 10
53.103617
 20
8.491347
 10
53.281887
 20
8.538807
 10
53.460156
 20
8.586107
 10
53.638426
 20
8.633245
 10
53.816696
 20
8.680220
 10
53.994965
 20
8.727344
 10
54.173235
 20
8.771000
 10
54.351505
 20
8.816068
 10
54.529774
 20
8.860120
 10
54.708044
 20
8.906215
 10
54.886314
 20
8.949269
 10
55.064583
 20
8.992556
 10
55.242853
 20
9.038336
 10
55.421122
 20
9.078999
 10
55.599392
 20
9.120755
 10
55.777662
 20
9.163897
 10
55.955931
 20
9.204072
 10
56.134201
 20
9.244370
 10
56.312471
 20
9.286886
 10
56.490740
 20
9.326902
 10
56.669010
 20
9.366202
 10
56.847280
 20
9.405376
 10
57.025549
 20
9.444425
 10
57.203819
 20
9.483349
 10
57.382089
 20
9.522149
 10
57.560358
 20
9.561284
 10
57.738628
 20
9.597574
 10
57.916898
 20
9.633044
 10
58.095167
 20
9.670547
 10
58.273437
 20
9.707250
 10
58.451707
 20
9.742305
 10
58.629976
 20
9.778113
 10
58.808246
 20
9.812581
 10
58.986515
 20
9.848584
 10
59.164785
 20
9.881947
 10
59.343055
 20
9.915795
 10
59.521324
 20
9.951486
 10
59.699594
 20
9.985054
 10
59.877864
 20
10.018043
 10
60.056133
 20
10.051464
 10
60.234403
 20
10.081595
 10
60.412673
 20
10.112055
 10
60.590942
 20
10.145049
 10
60.769212
 20
10.176898
 10
60.947482
 20
10.205630
 10
61.125751
 20
10.238279
 10
61.304021
 20
10.266766
 10
61.482291
 20
10.298932
 10
61.660560
 20
10.328428
 10
61.838830
 20
10.356888
 10
62.017100
 20
10.385318
 10
62.195369
 20
10.413712
 10
62.373639
 20
10.442162
 10
62.551908
 20
10.470520
 10
62.730178
 20
10.495162
 10
62.908448
 20
10.522892
 10
63.086717
 20
10.551451
 10
63.264987
 20
10.577541
 10
63.443257
 20
10.601985
 10
63.621526
 20
10.627609
 10
63.799796
 20
10.655531
 10
63.978066
 20
10.680352
 10
64.156335
 20
10.705155
 10
64.323166
 20
10.728224
  0
LWPOLYLINE
  5
17B
100
AcDbEntity
100
AcDbPolyline
  8
0
 62
256
  6
ByLayer
370
-1
 70
0
 43
0.000000
 90
200
 10
41.560000
 20
-4.864034
 10
41.561144
 20
-4.864035
 10
41.562288
 20
-4.864036
 10
41.563432
 20
-4.864038
 10
41.564576
 20
-4.864040
 10
41.565719
 20
-4.864043
 10
41.566863
 20
-4.864047
 10
41.568007
 20
-4.864052
 10
41.569151
 20
-4.864057
 10
41.570295
 20
-4.864063
 10
41.571439
 20
-4.864070
 10
41.577158
 20
-4.864114
 10
41.582878
 20
-4.864175
 10
41.588597
 20
-4.864254
 10
41.594316
 20
-4.864351
 10
41.600036
 20
-4.864466
 10
41.605755
 20
-4.864598
 10
41.611474
 20
-4.864748
 10
41.617194
 20
-4.864915
 10
41.622913
 20
-4.865100
 10
41.628633
 20
-4.865302
 10
41.634352
 20
-4.865523
 10
41.640071
 20
-4.865760
 10
41.645791
 20
-4.866016
 10
41.651510
 20
-4.866289
 10
41.657230
 20
-4.866580
 10
41.668668
 20
-4.867215
 10
41.680107
 20
-4.867920
 10
41.691546
 20
-4.868697
 10
41.702985
 20
-4.869544
 10
41.714423
 20
-4.870463
 10
41.725862
 20
-4.871452
 10
41.737301
 20
-4.872513
 10
41.748740
 20
-4.873645
 10
41.760179
 20
-4.874849
 10
41.771617
 20
-4.876124
 10
41.783056
 20
-4.877472
 10
41.794495
 20
-4.878891
 10
41.805934
 20
-4.880382
 10
41.817372
 20
-4.881946
 10
41.828811
 20
-4.883582
 10
41.840250
 20
-4.885291
 10
41.851689
 20
-4.887073
 10
41.863128
 20
-4.888928
 10
41.874566
 20
-4.890856
 10
41.886005
 20
-4.892857
 10
41.897444
 20
-4.894933
 10
41.908883
 20
-4.897083
 10
41.920321
 20
-4.899307
 10
41.931760
 20
-4.901605
 10
41.943199
 20
-4.903978
 10
41.954638
 20
-4.906427
 10
41.966077
 20
-4.908951
 10
41.977515
 20
-4.911551
 10
41.988954
 20
-4.914227
 10
42.000393
 20
-4.916979
 10
42.011832
 20
-4.919808
 10
42.023270
 20
-4.922715
 10
42.034709
 20
-4.925698
 10
42.046148
 20
-4.928760
 10
42.057587
 20
-4.932142
 10
42.069026
 20
-4.936085
 10
42.080464
 20
-4.939370
 10
42.091903
 20
-4.942458
 10
42.103342
 20
-4.945734
 10
42.114781
 20
-4.949581
 10
42.126219
 20
-4.953457
 10
42.137658
 20
-4.957091
 10
42.149097
 20
-4.960268
 10
42.160536
 20
-4.962898
 10
42.171975
 20
-4.965650
 10
42.183413
 20
-4.968526
 10
42.194852
 20
-4.971525
 10
42.206291
 20
-4.974807
 10
42.217730
 20
-4.978145
 10
42.229168
 20
-4.981510
 10
42.407438
 20
-5.034554
 10
42.585708
 20
-5.090736
 10
42.763977
 20
-5.147037
 10
42.942247
 20
-5.202839
 10
43.120517
 20
-5.262740
 10
43.298786
 20
-5.320580
 10
43.477056
 20
-5.379807
 10
43.655326
 20
-5.438951
 10
43.833595
 20
-5.499560
 10
44.011865
 20
-5.563597
 10
44.190135
 20
-5.623182
 10
44.368404
 20
-5.683485
 10
44.546674
 20
-5.745776
 10
44.724944
 20
-5.808328
 10
44.903213
 20
-5.869945
 10
45.081483
 20
-5.932634
 10
45.259752
 20
-5.994677
 10
45.438022
 20
-6.057453
 10
45.616292
 20
-6.118913
 10
45.794561
 20
-6.181429
 10
45.972831
 20
-6.244464
 10
46.151101
 20
-6.305757
 10
46.329370
 20
-6.368522
 10
46.507640
 20
-6.428910
 10
46.685910
 20
-6.493565
 10
46.864179
 20
-6.552916
 10
47.042449
 20
-6.613834
 10
47.220719
 20
-6.675716
 10
47.398988
 20
-6.736695
 10
47.577258
 20
-6.797614
 10
47.755528
 20
-6.859124
 10
47.933797
 20
-6.917580
 10
48.112067
 20
-6.976772
 10
48.290337
 20
-7.038072
 10
48.468606
 20
-7.095435
 10
48.646876
 20
-7.154155
 10
48.825145
 20
-7.211932
 10
49.003415
 20
-7.269409
 10
49.181685
 20
-7.327695
 10
49.359954
 20
-7.384045
 10
49.538224
 20
-7.441419
 10
49.716494
 20
-7.497344
 10
49.894763
 20
-7.554159
 10
50.073033
 20
-7.609687
 10
50.251303
 20
-7.665028
 10
50.429572
 20
-7.719585
 10
50.607842
 20
-7.774742
 10
50.786112
 20
-7.828635
 10
50.964381
 20
-7.881160
 10
51.142651
 20
-7.937003
 10
51.320921
 20
-7.986688
 10
51.499190
 20
-8.041813
 10
51.677460
 20
-8.090909
 10
51.855730
 20
-8.142248
 10
52.033999
 20
-8.194048
 10
52.212269
 20
-8.244654
 10
52.390538
 20
-8.295194
 10
52.568808
 20
-8.343547
 10
52.747078
 20
-8.394377
 10
52.925347
 20
-8.443727
 10
53.103617
 20
-8.491347
 10
53.281887
 20
-8.538807
 10
53.460156
 20
-8.586107
 10
53.638426
 20
-8.633245
 10
53.816696
 20
-8.680220
 10
53.994965
 20
-8.727344
 10
54.173235
 20
-8.771000
 10
54.351505
 20
-8.816068
 10
54.529774
 20
-8.860120
 10
54.708044
 20
-8.906215
 10
54.886314
 20
-8.949269
 10
55.064583
 20
-8.992556
 10
55.242853
 20
-9.038336
 10
55.421122
 20
-9.078999
 10
55.599392
 20
-9.120755
 10
55.777662
 20
-9.163897
 10
55.955931
 20
-9.204072
 10
56.134201
 20
-9.244370
 10
56.312471
 20
-9.286886
 10
56.490740
 20
-9.326902
 10
56.669010
 20
-9.366202
 10
56.847280
 20
-9.405376
 10
57.025549
 20
-9.444425
 10
57.203819
 20
-9.483349
 10
57.382089
 20
-9.522149
 10
57.560358
 20
-9.561284
 10
57.738628
 20
-9.597574
 10
57.916898
 20
-9.633044
 10
58.095167
 20
-9.670547
 10
58.273437
 20
-9.707250
 10
58.451707
 20
-9.742305
 10
58.629976
 20
-9.778113
 10
58.808246
 20
-9.812581
 10
58.986515
 20
-9.848584
 10
59.164785
 20
-9.881947
 10
59.343055
 20
-9.915795
 10
59.521324
 20
-9.951486
 10
59.699594
 20
-9.985054
 10
59.877864
 20
-10.018043
 10
60.056133
 20
-10.051464
 10
60.234403
 20
-10.081595
 10
60.412673
 20
-10.112055
 10
60.590942
 20
-10.145049
 10
60.769212
 20
-10.176898
 10
60.947482
 20
-10.205630
 10
61.125751
 20
-10.238279
 10
61.304021
 20
-10.266766
 10
61.482291
 20
-10.298932
 10
61.660560
 20
-10.328428
 10
61.838830
 20
-10.356888
 10
62.017100
 20
-10.385318
 10
62.195369
 20
-10.413712
 10
62.373639
 20
-10.442162
 10
62.551908
 20
-10.470520
 10
62.730178
 20
-10.495162
 10
62.908448
 20
-10.522892
 10
63.086717
 20
-10.551451
 10
63.264987
 20
-10.577541
 10
63.443257
 20
-10.601985
 10
63.621526
 20
-10.627609
 10
63.799796
 20
-10.655531
 10
63.978066
 20
-10.680352
 10
64.156335
 20
-10.705155
 10
64.323166
 20
-10.728224
  0
DIMENSION
  5
17C
100
AcDbEntity
100
AcDbDimension
  8
Dimensions
 70
32
 62
256
  1
D21.4565
 10
84.323166
 20
0.000000
 11
82.323166
 21
0.000000
 53
90.000000
100
AcDbAlignedDimension
 13
64.323166
 23
-10.728228
 14
64.323166
 24
10.728228
 50
90.000000
100
AcDbRotatedDimension
  0
LINE
  5
17D
100
AcDbEntity
100
AcDbLine
  8
0
 62
3
  6
CENTER2
370
-1
 10
0.000000
 20
0.000000
 30
0.000000
 11
64.323166
 21
0.000000
 31
0.000000
  0
TEXT
  5
17E
100
AcDbEntity
  8
Dimensions
 62
3
  6
ByLayer
100
AcDbText
 10
0.000000
 20
-60.728228
 40
5.000000
  1
Nessus Block 0
 50
0.000000
100
AcDbText
  0
ENDBLK
  5
17F
100
AcDbEntity
  8
0
100
AcDbBlockEnd
  0
ENDSEC
  0
SECTION
  2
ENTITIES
  0
INSERT
  5
180
100
AcDbEntity
100
AcDbBlockReference
  8
0
 62
3
  6
ByLayer
  2
CHAMBER_COUNTOR
 10
0.000000
 20
0.000000
 42
1.000000
 43
1.000000
 44
1.000000
 45
1.000000
  0
ENDSEC
  0
SECTION
  2
OBJECTS
  0
DICTIONARY
  5
C
100
AcDbDictionary
280
0
281
1
  3
ACAD_GROUP
350
D
  3
ACAD_LAYOUT
350
1A
  3
ACAD_MLINESTYLE
350
17
  3
ACAD_PLOTSETTINGS
350
19
  3
ACAD_PLOTSTYLENAME
350
E
  3
AcDbVariableDictionary
350
73
  0
DICTIONARY
  5
D
100
AcDbDictionary
280
0
281
1
  0
ACDBDICTIONARYWDFLT
  5
E
100
AcDbDictionary
281
1
  3
Normal
350
F
100
AcDbDictionaryWithDefault
340
F
  0
ACDBPLACEHOLDER
  5
F
100
AcDbPlaceHolder
  0
DICTIONARY
  5
17
100
AcDbDictionary
280
0
281
1
  3
Standard
350
18
  0
MLINESTYLE
  5
18
100
AcDbMlineStyle
  2
STANDARD
 70
0
  3

 62
256
 51
90.0
 52
90.0
 71
2
 49
0.5
 62
256
  6
BYLAYER
 49
-0.5
 62
256
  6
BYLAYER
  0
DICTIONARY
  5
19
100
AcDbDictionary
280
0
281
1
  0
DICTIONARY
  5
1A
100
AcDbDictionary
281
1
  3
Layout1
350
1E
  3
Layout2
350
26
  3
Model
350
22
  0
ENDSEC
  0
EOF
