999
Created from RPA-4 - Tool for Rocket Propulsion Analysis
999
(C) 2009-2022 RP Software+Engineering UG
999
https://www.rocket-propulsion.com
999
Nescius Block 0
  0
SECTION
  2
HEADER
  9
$ACADVER
  1
AC1014
  9
$HANDSEED
  5
FFFF
  9
$MEASUREMENT
 70
0
  9
$MEASUREINIT 
 70
1
  9
$INSUNITS
 70
1
  9
$DIMSTYLE
  2
Standard
  9
$DIMUNIT
 70
2
  9
$DIMTXT
 40
0.098425
  9
$DIMASZ
 40
0.098425
  9
$DIMEXE
 40
0.049213
  9
$DIMEXO
 40
0.024606
  9
$DIMGAP
 40
0.024606
  0
ENDSEC
  0
SECTION
  2
TABLES
  0
TABLE
  2
VPORT
  5
2D0
100
AcDbSymbolTable
  0
VPORT
  5
2D1
100
AcDbSymbolTableRecord
100
AcDbViewportTableRecord
  2
*Active
 70
0
 10
0.000000
 20
0.000000
 11
103.499234
 21
21.402129
 12
51.749617
 22
10.701065
 13
0.000000
 23
0.000000
 14
10.000000
 24
10.000000
 15
10.000000
 25
10.000000
 16
0.000000
 26
0.000000
 36
1.000000
 17
0.000000
 27
0.000000
 37
0.000000
 40
21.402129
 41
1.927984
 42
50.000000
 43
0.000000
 44
0.000000
 50
0.000000
 51
0.000000
 71
1
 72
100.000000
 73
1
 74
3
 75
1
 76
1
 77
0
 78
0
281
0
 65
1
  0
ENDTAB
  0
TABLE
  2
LTYPE
  5
2D2
100
AcDbSymbolTable
 70
10
  0
LTYPE
  5
2D3
100
AcDbSymbolTableRecord
100
AcDbLinetypeTableRecord
  2
ByBlock
 70
0
  3

 72
65
 73
0
 40
0.000000
  0
LTYPE
  5
2D4
100
AcDbSymbolTableRecord
100
AcDbLinetypeTableRecord
  2
ByLayer
 70
0
  3

 72
65
 73
0
 40
0.000000
  0
LTYPE
  5
2D5
100
AcDbSymbolTableRecord
100
AcDbLinetypeTableRecord
  2
CONTINUOUS
 70
0
  3
Solid line
 72
65
 73
0
 40
0.000000
  0
LTYPE
  5
2D6
100
AcDbSymbolTableRecord
100
AcDbLinetypeTableRecord
  2
DOT
 70
0
  3
Dot . . . . . . . . . . . . . . . . . . . . . .
 72
65
 73
2
 40
6.350000
 49
0.000000
 74
0.000000
 49
-6.350000
 74
0.000000
  0
LTYPE
  5
2D7
100
AcDbSymbolTableRecord
100
AcDbLinetypeTableRecord
  2
DOT2
 70
0
  3
Dot (.5x) .....................................
 72
65
 73
2
 40
3.175000
 49
0.000000
 74
0.000000
 49
-3.175000
 74
0.000000
  0
LTYPE
  5
2D8
100
AcDbSymbolTableRecord
100
AcDbLinetypeTableRecord
  2
DOTX2
 70
0
  3
Dot (2x) .  .  .  .  .  .  .  .  .  .  .  .  .
 72
65
 73
2
 40
12.700000
 49
0.000000
 74
0.000000
 49
-12.700000
 74
0.000000
  0
LTYPE
  5
2D9
100
AcDbSymbolTableRecord
100
AcDbLinetypeTableRecord
  2
DASHED
 70
0
  3
Dashed __ __ __ __ __ __ __ __ __ __ __ __ __ _
 72
65
 73
2
 40
19.050000
 49
12.700000
 74
0.000000
 49
-6.350000
 74
0.000000
  0
LTYPE
  5
2DA
100
AcDbSymbolTableRecord
100
AcDbLinetypeTableRecord
  2
DASHED2
 70
0
  3
Dashed (.5x) _ _ _ _ _ _ _ _ _ _ _ _ _ _ _ _ _
 72
65
 73
2
 40
9.525000
 49
6.350000
 74
0.000000
 49
-3.175000
 74
0.000000
  0
LTYPE
  5
2DB
100
AcDbSymbolTableRecord
100
AcDbLinetypeTableRecord
  2
DASHDOT
 70
0
  3
Dash dot __ . __ . __ . __ . __ . __ . __ . __
 72
65
 73
4
 40
25.400000
 49
12.700000
 74
0.000000
 49
-6.350000
 74
0.000000
 49
0.000000
 74
0.000000
 49
-6.350000
 74
0.000000
  0
LTYPE
  5
2DC
100
AcDbSymbolTableRecord
100
AcDbLinetypeTableRecord
  2
DASHDOT2
 70
0
  3
Dash dot (.5x) _._._._._._._._._._._._._._._.
 72
65
 73
4
 40
12.700000
 49
6.350000
 74
0.000000
 49
-3.175000
 74
0.000000
 49
0.000000
 74
0.000000
 49
-3.175000
 74
0.000000
  0
LTYPE
  5
2DD
100
AcDbSymbolTableRecord
100
AcDbLinetypeTableRecord
  2
DASHDOTX2
 70
0
  3
Dash dot (2x) ____  .  ____  .  ____  .  ___
 72
65
 73
4
 40
50.800000
 49
25.400000
 74
0.000000
 49
-12.700000
 74
0.000000
 49
0.000000
 74
0.000000
 49
-12.700000
 74
0.000000
  0
LTYPE
  5
2DE
100
AcDbSymbolTableRecord
100
AcDbLinetypeTableRecord
  2
DIVIDE
 70
0
  3
Divide ____ . . ____ . . ____ . . ____ . . ____
 72
65
 73
6
 40
31.750000
 49
12.700000
 74
0.000000
 49
-6.350000
 74
0.000000
 49
0.000000
 74
0.000000
 49
-6.350000
 74
0.000000
 49
0.000000
 74
0.000000
 49
-6.350000
 74
0.000000
  0
LTYPE
  5
2DF
100
AcDbSymbolTableRecord
100
AcDbLinetypeTableRecord
  2
DIVIDEX2
 70
0
  3
Divide (2x) ________  .  .  ________  .  .  _
 72
65
 73
6
 40
63.500000
 49
25.400000
 74
0.000000
 49
-12.700000
 74
0.000000
 49
0.000000
 74
0.000000
 49
-12.700000
 74
0.000000
 49
0.000000
 74
0.000000
 49
-12.700000
 74
0.000000
  0
LTYPE
  5
2E0
100
AcDbSymbolTableRecord
100
AcDbLinetypeTableRecord
  2
CENTER
 70
0
  3
Center ____ _ ____ _ ____ _ ____ _ ____ _ ____
 72
65
 73
4
 40
50.800000
 49
31.750000
 74
0.000000
 49
-6.350000
 74
0.000000
 49
6.350000
 74
0.000000
 49
-6.350000
 74
0.000000
  0
LTYPE
  5
2E1
100
AcDbSymbolTableRecord
100
AcDbLinetypeTableRecord
  2
CENTER2
 70
0
  3
Center (.5x) ___ _ ___ _ ___ _ ___ _ ___ _ ___
 72
65
 73
4
 40
28.575000
 49
19.050000
 74
0.000000
 49
-3.175000
 74
0.000000
 49
3.175000
 74
0.000000
 49
-3.175000
 74
0.000000
  0
LTYPE
  5
2E2
100
AcDbSymbolTableRecord
100
AcDbLinetypeTableRecord
  2
CENTERX2
 70
0
  3
Center (2x) ________  __  ________  __  _____
 72
65
 73
4
 40
101.600000
 49
63.500000
 74
0.000000
 49
-12.700000
 74
0.000000
 49
12.700000
 74
0.000000
 49
-12.700000
 74
0.000000
  0
LTYPE
  5
2E3
100
AcDbSymbolTableRecord
100
AcDbLinetypeTableRecord
  2
BORDER
 70
0
  3
Border __ __ . __ __ . __ __ . __ __ . __ __ .
 72
65
 73
6
 40
44.450000
 49
12.700000
 74
0.000000
 49
-6.350000
 74
0.000000
 49
12.700000
 74
0.000000
 49
-6.350000
 74
0.000000
 49
0.000000
 74
0.000000
 49
-6.350000
 74
0.000000
  0
LTYPE
  5
2E4
100
AcDbSymbolTableRecord
100
AcDbLinetypeTableRecord
  2
BORDER2
 70
0
  3
Border (.5x) __.__.__.__.__.__.__.__.__.__.__.
 72
65
 73
6
 40
22.225000
 49
6.350000
 74
0.000000
 49
-3.175000
 74
0.000000
 49
6.350000
 74
0.000000
 49
-3.175000
 74
0.000000
 49
0.000000
 74
0.000000
 49
-3.175000
 74
0.000000
  0
LTYPE
  5
2E5
100
AcDbSymbolTableRecord
100
AcDbLinetypeTableRecord
  2
BORDERX2
 70
0
  3
Border (2x) ____  ____  .  ____  ____  .  ___
 72
65
 73
6
 40
88.900000
 49
25.400000
 74
0.000000
 49
-12.700000
 74
0.000000
 49
25.400000
 74
0.000000
 49
-12.700000
 74
0.000000
 49
0.000000
 74
0.000000
 49
-12.700000
 74
0.000000
  0
ENDTAB
  0
TABLE
  2
LAYER
  5
2E6
100
AcDbSymbolTable
  0
LAYER
  5
2E7
100
AcDbSymbolTableRecord
100
AcDbLayerTableRecord
  2
0
 70
0
 62
1
  6
Continuous
390
F
  0
LAYER
  5
2E8
100
AcDbSymbolTableRecord
100
AcDbLayerTableRecord
  2
Dimensions
 70
0
 62
5
  6
Continuous
390
F
  0
ENDTAB
  0
TABLE
  2
STYLE
  5
2E9
100
AcDbSymbolTable
  0
STYLE
  5
2EA
100
AcDbSymbolTableRecord
100
AcDbTextStyleTableRecord
  2
Standard
  3
txt
 70
0
 71
0
 40
0.000000
 41
0.750000
 42
0.000000
 50
0.000000
  0
ENDTAB
  0
TABLE
  2
VIEW
  5
2EB
100
AcDbSymbolTable
 70
0
 40
103.499234
 41
21.402129
  0
ENDTAB
  0
TABLE
  2
UCS
  5
2EC
100
AcDbSymbolTable
 70
0
  0
ENDTAB
  0
TABLE
  2
APPID
  5
9
100
AcDbSymbolTable
 70
1
  0
APPID
  5
12
100
AcDbSymbolTableRecord
100
AcDbRegAppTableRecord
  2
ACAD
 70
0
  0
ENDTAB
  0
TABLE
  2
DIMSTYLE
  5
A
100
AcDbSymbolTable
 70
1
 71
0
  0
DIMSTYLE
105
27
100
AcDbSymbolTableRecord
100
AcDbDimStyleTableRecord
 70
0
  2
Standard
176
5
 46
0.000000
177
5
 44
0.049213
 42
0.024606
  6
ClosedFilled
  7
ClosedFilled
 41
0.098425
340
0
178
5
140
0.098425
 77
1
147
0.024606
  0
ENDTAB
  0
TABLE
  2
BLOCK_RECORD
  5
2ED
100
AcDbSymbolTable
 70
1
  0
BLOCK_RECORD
  5
2EE
100
AcDbSymbolTableRecord
100
AcDbBlockTableRecord
  2
*Model_Space
340
22
  0
BLOCK_RECORD
  5
2EF
100
AcDbSymbolTableRecord
100
AcDbBlockTableRecord
  2
*Paper_Space
340
1E
  0
BLOCK_RECORD
  5
2F0
100
AcDbSymbolTableRecord
100
AcDbBlockTableRecord
  2
*Paper_Space0
340
26
  0
BLOCK_RECORD
  5
2F1
100
AcDbSymbolTableRecord
100
AcDbBlockTableRecord
  2
CHAMBER_COUNTOR
340
26
  0
ENDTAB
  0
ENDSEC
  0
SECTION
  2
BLOCKS
  0
BLOCK
  5
2F2
100
AcDbEntity
  8
0
100
AcDbBlockBegin
  2
*Model_Space
 70
1
 10
0.000000
 20
0.000000
  3
*Model_Space
  0
ENDBLK
  5
2F3
100
AcDbEntity
  8
0
100
AcDbBlockEnd
  0
BLOCK
  5
2F4
100
AcDbEntity
  8
0
100
AcDbBlockBegin
  2
*Paper_Space
 70
1
 10
0.000000
 20
0.000000
  3
*Paper_Space
  0
ENDBLK
  5
2F5
100
AcDbEntity
  8
0
100
AcDbBlockEnd
  0
BLOCK
  5
2F6
100
AcDbEntity
  8
0
100
AcDbBlockBegin
  2
*Paper_Space0
 70
1
 10
0.000000
 20
0.000000
  3
*Paper_Space0
  0
ENDBLK
  5
2F7
100
AcDbEntity
  8
0
100
AcDbBlockEnd
  0
BLOCK
  5
2F8
100
AcDbEntity
  8
0
100
AcDbBlockBegin
  2
CHAMBER_COUNTOR
 70
1
 10
0.000000
 20
0.000000
  3
CHAMBER_COUNTOR
  0
LINE
  5
2F9
100
AcDbEntity
100
AcDbLine
  8
0
 62
256
  6
ByLayer
370
-1
 10
0.000000
 20
0.829156
 30
0.000000
 11
2.140176
 21
0.829156
 31
0.000000
  0
LINE
  5
2FA
100
AcDbEntity
100
AcDbLine
  8
0
 62
256
  6
ByLayer
370
-1
 10
0.000000
 20
-0.829156
 30
0.000000
 11
2.140176
 21
-0.829156
 31
0.000000
  0
ARC
  5
2FB
100
AcDbEntity
100
AcDbCircle
  8
0
 62
256
  6
ByLayer
370
-1
 10
2.140176
 20
-0.118907
 40
0.948063
100
AcDbArc
 50
45.000000
 51
90.000000
  0
ARC
  5
2FC
100
AcDbEntity
100
AcDbCircle
  8
0
 62
256
  6
ByLayer
370
-1
 10
2.140176
 20
0.118907
 40
0.948063
100
AcDbArc
 50
270.000000
 51
315.000000
  0
LINE
  5
2FD
100
AcDbEntity
100
AcDbLine
  8
0
 62
256
  6
ByLayer
370
-1
 10
2.810558
 20
0.551475
 30
0.000000
 11
3.088240
 21
0.273793
 31
0.000000
  0
LINE
  5
2FE
100
AcDbEntity
100
AcDbLine
  8
0
 62
256
  6
ByLayer
370
-1
 10
2.810558
 20
-0.551475
 30
0.000000
 11
3.088240
 21
-0.273793
 31
0.000000
  0
ARC
  5
2FF
100
AcDbEntity
100
AcDbCircle
  8
0
 62
256
  6
ByLayer
370
-1
 10
3.290000
 20
0.475554
 40
0.285332
100
AcDbArc
 50
225.000000
 51
270.000000
  0
ARC
  5
300
100
AcDbEntity
100
AcDbCircle
  8
0
 62
256
  6
ByLayer
370
-1
 10
3.290000
 20
-0.475554
 40
0.285332
100
AcDbArc
 50
90.000000
 51
135.000000
  0
DIMENSION
  5
301
100
AcDbEntity
100
AcDbDimension
  8
Dimensions
 70
32
 62
256
  1
D1.6583
 10
-0.393701
 20
0.829156
 11
-0.472441
 21
0.000000
 53
90.000000
100
AcDbAlignedDimension
 13
0.000000
 23
-0.829156
 14
0.000000
 24
0.829156
 50
90.000000
100
AcDbRotatedDimension
  0
DIMENSION
  5
302
100
AcDbEntity
100
AcDbDimension
  8
Dimensions
 70
32
 62
256
  1
D0.3804
 10
4.468474
 20
0.190221
 11
4.389734
 21
0.000000
 53
90.000000
100
AcDbAlignedDimension
 13
3.290000
 23
-0.190221
 14
3.290000
 24
0.190221
 50
90.000000
100
AcDbRotatedDimension
  0
DIMENSION
  5
303
100
AcDbEntity
100
AcDbDimension
  8
Dimensions
 70
32
 62
256
 10
0.000000
 20
-1.222857
 11
1.070088
 21
-1.104747
100
AcDbAlignedDimension
 13
0.000000
 23
-0.829156
 14
2.140176
 24
-0.829156
 50
0.000000
100
AcDbRotatedDimension
  0
DIMENSION
  5
304
100
AcDbEntity
100
AcDbDimension
  8
Dimensions
 70
32
 62
256
 10
0.000000
 20
-1.616558
 11
1.645000
 21
-1.498447
100
AcDbAlignedDimension
 13
0.000000
 23
-0.829156
 14
3.290000
 24
-0.190221
 50
0.000000
100
AcDbRotatedDimension
  0
DIMENSION
  5
305
100
AcDbEntity
100
AcDbDimension
  8
Dimensions
 70
32
 62
256
 10
0.000000
 20
-2.010258
 11
2.037386
 21
-1.892148
100
AcDbAlignedDimension
 13
0.000000
 23
-0.829156
 14
4.074773
 24
-0.421302
 50
0.000000
100
AcDbRotatedDimension
  0
DIMENSION
  5
306
100
AcDbEntity
100
AcDbDimension
  8
Dimensions
 70
4
 62
256
  1
R0.9481
 10
2.140176
 20
-0.118907
 11
2.016992
 21
1.300105
100
AcDbRadialDimension
 15
2.149923
 25
0.829106
  0
DIMENSION
  5
307
100
AcDbEntity
100
AcDbDimension
  8
Dimensions
 70
4
 62
256
  1
R0.2853
 10
3.290000
 20
0.475554
 11
3.146445
 21
-0.086756
100
AcDbRadialDimension
 15
3.287067
 25
0.190237
  0
DIMENSION
  5
308
100
AcDbEntity
100
AcDbDimension
  8
Dimensions
 70
2
 62
256
 10
3.088240
 20
0.000000
 11
1.981402
 21
0.413606
100
AcDb2LineAngularDimension
 13
3.088240
 23
0.273793
 14
2.810558
 24
0.551475
 15
2.810558
 25
0.000000
 16
1.981402
 26
0.413606
  0
ARC
  5
309
100
AcDbEntity
100
AcDbCircle
  8
0
 62
256
  6
ByLayer
370
-1
 10
3.290000
 20
0.262886
 40
0.072665
100
AcDbArc
 50
270.000000
 51
289.698805
  0
ARC
  5
30A
100
AcDbEntity
100
AcDbCircle
  8
0
 62
256
  6
ByLayer
370
-1
 10
3.290000
 20
-0.262886
 40
0.072665
100
AcDbArc
 50
70.301195
 51
90.000000
  0
SPLINE
  5
30B
  8
0
100
AcDbEntity
100
AcDbSpline
 70
8
 71
2
 72
6
 73
3
 40
0
 40
0
 40
0
 40
1
 40
1
 40
1
 10
3.314493
 20
0.194474
 10
3.866146
 20
0.391981
 10
4.074773
 20
0.421302
  0
SPLINE
  5
30C
  8
0
100
AcDbEntity
100
AcDbSpline
 70
8
 71
2
 72
6
 73
3
 40
0
 40
0
 40
0
 40
1
 40
1
 40
1
 10
3.314493
 20
-0.194474
 10
3.866146
 20
-0.391981
 10
4.074773
 20
-0.421302
  0
DIMENSION
  5
30D
100
AcDbEntity
100
AcDbDimension
  8
Dimensions
 70
32
 62
256
  1
D0.8426
 10
4.862175
 20
0.000000
 11
4.783434
 21
0.000000
 53
90.000000
100
AcDbAlignedDimension
 13
4.074773
 23
-0.421302
 14
4.074773
 24
0.421302
 50
90.000000
100
AcDbRotatedDimension
  0
DIMENSION
  5
30E
100
AcDbEntity
100
AcDbDimension
  8
Dimensions
 70
5
 62
256
 10
4.507844
 20
0.481574
 11
4.074773
 21
0.481574
100
AcDb3PointAngularDimension
 15
4.074773
 25
0.421302
 13
4.118080
 23
0.421302
 14
4.117659
 24
0.427329
  0
DIMENSION
  5
30F
100
AcDbEntity
100
AcDbDimension
  8
Dimensions
 70
4
 62
256
  1
R0.0727
 10
3.290000
 20
0.262886
 11
3.429361
 21
-0.085986
100
AcDbRadialDimension
 15
3.290327
 25
0.190222
  0
DIMENSION
  5
310
100
AcDbEntity
100
AcDbDimension
  8
Dimensions
 70
2
 62
256
 10
3.314493
 20
0.194474
 11
3.851761
 21
0.348148
100
AcDb2LineAngularDimension
 13
3.314493
 23
0.000000
 14
3.504715
 24
0.000000
 15
3.493583
 25
0.258593
 16
3.851761
 26
0.348148
  0
LINE
  5
311
100
AcDbEntity
100
AcDbLine
  8
0
 62
3
  6
CENTER2
370
-1
 10
0.000000
 20
0.000000
 30
0.000000
 11
4.074773
 21
0.000000
 31
0.000000
  0
TEXT
  5
312
100
AcDbEntity
  8
Dimensions
 62
3
  6
ByLayer
100
AcDbText
 10
0.000000
 20
-2.389806
 40
0.196850
  1
Nescius Block 0
 50
0.000000
100
AcDbText
  0
ENDBLK
  5
313
100
AcDbEntity
  8
0
100
AcDbBlockEnd
  0
ENDSEC
  0
SECTION
  2
ENTITIES
  0
INSERT
  5
314
100
AcDbEntity
100
AcDbBlockReference
  8
0
 62
3
  6
ByLayer
  2
CHAMBER_COUNTOR
 10
0.000000
 20
0.000000
 42
1.000000
 43
1.000000
 44
1.000000
 45
1.000000
  0
ENDSEC
  0
SECTION
  2
OBJECTS
  0
DICTIONARY
  5
C
100
AcDbDictionary
280
0
281
1
  3
ACAD_GROUP
350
D
  3
ACAD_LAYOUT
350
1A
  3
ACAD_MLINESTYLE
350
17
  3
ACAD_PLOTSETTINGS
350
19
  3
ACAD_PLOTSTYLENAME
350
E
  3
AcDbVariableDictionary
350
73
  0
DICTIONARY
  5
D
100
AcDbDictionary
280
0
281
1
  0
ACDBDICTIONARYWDFLT
  5
E
100
AcDbDictionary
281
1
  3
Normal
350
F
100
AcDbDictionaryWithDefault
340
F
  0
ACDBPLACEHOLDER
  5
F
100
AcDbPlaceHolder
  0
DICTIONARY
  5
17
100
AcDbDictionary
280
0
281
1
  3
Standard
350
18
  0
MLINESTYLE
  5
18
100
AcDbMlineStyle
  2
STANDARD
 70
0
  3

 62
256
 51
90.0
 52
90.0
 71
2
 49
0.5
 62
256
  6
BYLAYER
 49
-0.5
 62
256
  6
BYLAYER
  0
DICTIONARY
  5
19
100
AcDbDictionary
280
0
281
1
  0
DICTIONARY
  5
1A
100
AcDbDictionary
281
1
  3
Layout1
350
1E
  3
Layout2
350
26
  3
Model
350
22
  0
ENDSEC
  0
EOF
