999
Created from RPA-4 - Tool for Rocket Propulsion Analysis
999
(C) 2009-2022 RP Software+Engineering UG
999
https://www.rocket-propulsion.com
999
Nescius Block 0
  0
SECTION
  2
HEADER
  9
$ACADVER
  1
AC1014
  9
$HANDSEED
  5
FFFF
  9
$MEASUREMENT
 70
0
  9
$MEASUREINIT 
 70
1
  9
$INSUNITS
 70
1
  9
$DIMSTYLE
  2
Standard
  9
$DIMUNIT
 70
2
  9
$DIMTXT
 40
0.098425
  9
$DIMASZ
 40
0.098425
  9
$DIMEXE
 40
0.049213
  9
$DIMEXO
 40
0.024606
  9
$DIMGAP
 40
0.024606
  0
ENDSEC
  0
SECTION
  2
TABLES
  0
TABLE
  2
VPORT
  5
146
100
AcDbSymbolTable
  0
VPORT
  5
147
100
AcDbSymbolTableRecord
100
AcDbViewportTableRecord
  2
*Active
 70
0
 10
0.000000
 20
0.000000
 11
114.744649
 21
21.718412
 12
57.372325
 22
10.859206
 13
0.000000
 23
0.000000
 14
10.000000
 24
10.000000
 15
10.000000
 25
10.000000
 16
0.000000
 26
0.000000
 36
1.000000
 17
0.000000
 27
0.000000
 37
0.000000
 40
21.718412
 41
1.927984
 42
50.000000
 43
0.000000
 44
0.000000
 50
0.000000
 51
0.000000
 71
1
 72
100.000000
 73
1
 74
3
 75
1
 76
1
 77
0
 78
0
281
0
 65
1
  0
ENDTAB
  0
TABLE
  2
LTYPE
  5
148
100
AcDbSymbolTable
 70
10
  0
LTYPE
  5
149
100
AcDbSymbolTableRecord
100
AcDbLinetypeTableRecord
  2
ByBlock
 70
0
  3

 72
65
 73
0
 40
0.000000
  0
LTYPE
  5
14A
100
AcDbSymbolTableRecord
100
AcDbLinetypeTableRecord
  2
ByLayer
 70
0
  3

 72
65
 73
0
 40
0.000000
  0
LTYPE
  5
14B
100
AcDbSymbolTableRecord
100
AcDbLinetypeTableRecord
  2
CONTINUOUS
 70
0
  3
Solid line
 72
65
 73
0
 40
0.000000
  0
LTYPE
  5
14C
100
AcDbSymbolTableRecord
100
AcDbLinetypeTableRecord
  2
DOT
 70
0
  3
Dot . . . . . . . . . . . . . . . . . . . . . .
 72
65
 73
2
 40
6.350000
 49
0.000000
 74
0.000000
 49
-6.350000
 74
0.000000
  0
LTYPE
  5
14D
100
AcDbSymbolTableRecord
100
AcDbLinetypeTableRecord
  2
DOT2
 70
0
  3
Dot (.5x) .....................................
 72
65
 73
2
 40
3.175000
 49
0.000000
 74
0.000000
 49
-3.175000
 74
0.000000
  0
LTYPE
  5
14E
100
AcDbSymbolTableRecord
100
AcDbLinetypeTableRecord
  2
DOTX2
 70
0
  3
Dot (2x) .  .  .  .  .  .  .  .  .  .  .  .  .
 72
65
 73
2
 40
12.700000
 49
0.000000
 74
0.000000
 49
-12.700000
 74
0.000000
  0
LTYPE
  5
14F
100
AcDbSymbolTableRecord
100
AcDbLinetypeTableRecord
  2
DASHED
 70
0
  3
Dashed __ __ __ __ __ __ __ __ __ __ __ __ __ _
 72
65
 73
2
 40
19.050000
 49
12.700000
 74
0.000000
 49
-6.350000
 74
0.000000
  0
LTYPE
  5
150
100
AcDbSymbolTableRecord
100
AcDbLinetypeTableRecord
  2
DASHED2
 70
0
  3
Dashed (.5x) _ _ _ _ _ _ _ _ _ _ _ _ _ _ _ _ _
 72
65
 73
2
 40
9.525000
 49
6.350000
 74
0.000000
 49
-3.175000
 74
0.000000
  0
LTYPE
  5
151
100
AcDbSymbolTableRecord
100
AcDbLinetypeTableRecord
  2
DASHDOT
 70
0
  3
Dash dot __ . __ . __ . __ . __ . __ . __ . __
 72
65
 73
4
 40
25.400000
 49
12.700000
 74
0.000000
 49
-6.350000
 74
0.000000
 49
0.000000
 74
0.000000
 49
-6.350000
 74
0.000000
  0
LTYPE
  5
152
100
AcDbSymbolTableRecord
100
AcDbLinetypeTableRecord
  2
DASHDOT2
 70
0
  3
Dash dot (.5x) _._._._._._._._._._._._._._._.
 72
65
 73
4
 40
12.700000
 49
6.350000
 74
0.000000
 49
-3.175000
 74
0.000000
 49
0.000000
 74
0.000000
 49
-3.175000
 74
0.000000
  0
LTYPE
  5
153
100
AcDbSymbolTableRecord
100
AcDbLinetypeTableRecord
  2
DASHDOTX2
 70
0
  3
Dash dot (2x) ____  .  ____  .  ____  .  ___
 72
65
 73
4
 40
50.800000
 49
25.400000
 74
0.000000
 49
-12.700000
 74
0.000000
 49
0.000000
 74
0.000000
 49
-12.700000
 74
0.000000
  0
LTYPE
  5
154
100
AcDbSymbolTableRecord
100
AcDbLinetypeTableRecord
  2
DIVIDE
 70
0
  3
Divide ____ . . ____ . . ____ . . ____ . . ____
 72
65
 73
6
 40
31.750000
 49
12.700000
 74
0.000000
 49
-6.350000
 74
0.000000
 49
0.000000
 74
0.000000
 49
-6.350000
 74
0.000000
 49
0.000000
 74
0.000000
 49
-6.350000
 74
0.000000
  0
LTYPE
  5
155
100
AcDbSymbolTableRecord
100
AcDbLinetypeTableRecord
  2
DIVIDEX2
 70
0
  3
Divide (2x) ________  .  .  ________  .  .  _
 72
65
 73
6
 40
63.500000
 49
25.400000
 74
0.000000
 49
-12.700000
 74
0.000000
 49
0.000000
 74
0.000000
 49
-12.700000
 74
0.000000
 49
0.000000
 74
0.000000
 49
-12.700000
 74
0.000000
  0
LTYPE
  5
156
100
AcDbSymbolTableRecord
100
AcDbLinetypeTableRecord
  2
CENTER
 70
0
  3
Center ____ _ ____ _ ____ _ ____ _ ____ _ ____
 72
65
 73
4
 40
50.800000
 49
31.750000
 74
0.000000
 49
-6.350000
 74
0.000000
 49
6.350000
 74
0.000000
 49
-6.350000
 74
0.000000
  0
LTYPE
  5
157
100
AcDbSymbolTableRecord
100
AcDbLinetypeTableRecord
  2
CENTER2
 70
0
  3
Center (.5x) ___ _ ___ _ ___ _ ___ _ ___ _ ___
 72
65
 73
4
 40
28.575000
 49
19.050000
 74
0.000000
 49
-3.175000
 74
0.000000
 49
3.175000
 74
0.000000
 49
-3.175000
 74
0.000000
  0
LTYPE
  5
158
100
AcDbSymbolTableRecord
100
AcDbLinetypeTableRecord
  2
CENTERX2
 70
0
  3
Center (2x) ________  __  ________  __  _____
 72
65
 73
4
 40
101.600000
 49
63.500000
 74
0.000000
 49
-12.700000
 74
0.000000
 49
12.700000
 74
0.000000
 49
-12.700000
 74
0.000000
  0
LTYPE
  5
159
100
AcDbSymbolTableRecord
100
AcDbLinetypeTableRecord
  2
BORDER
 70
0
  3
Border __ __ . __ __ . __ __ . __ __ . __ __ .
 72
65
 73
6
 40
44.450000
 49
12.700000
 74
0.000000
 49
-6.350000
 74
0.000000
 49
12.700000
 74
0.000000
 49
-6.350000
 74
0.000000
 49
0.000000
 74
0.000000
 49
-6.350000
 74
0.000000
  0
LTYPE
  5
15A
100
AcDbSymbolTableRecord
100
AcDbLinetypeTableRecord
  2
BORDER2
 70
0
  3
Border (.5x) __.__.__.__.__.__.__.__.__.__.__.
 72
65
 73
6
 40
22.225000
 49
6.350000
 74
0.000000
 49
-3.175000
 74
0.000000
 49
6.350000
 74
0.000000
 49
-3.175000
 74
0.000000
 49
0.000000
 74
0.000000
 49
-3.175000
 74
0.000000
  0
LTYPE
  5
15B
100
AcDbSymbolTableRecord
100
AcDbLinetypeTableRecord
  2
BORDERX2
 70
0
  3
Border (2x) ____  ____  .  ____  ____  .  ___
 72
65
 73
6
 40
88.900000
 49
25.400000
 74
0.000000
 49
-12.700000
 74
0.000000
 49
25.400000
 74
0.000000
 49
-12.700000
 74
0.000000
 49
0.000000
 74
0.000000
 49
-12.700000
 74
0.000000
  0
ENDTAB
  0
TABLE
  2
LAYER
  5
15C
100
AcDbSymbolTable
  0
LAYER
  5
15D
100
AcDbSymbolTableRecord
100
AcDbLayerTableRecord
  2
0
 70
0
 62
1
  6
Continuous
390
F
  0
LAYER
  5
15E
100
AcDbSymbolTableRecord
100
AcDbLayerTableRecord
  2
Dimensions
 70
0
 62
5
  6
Continuous
390
F
  0
ENDTAB
  0
TABLE
  2
STYLE
  5
15F
100
AcDbSymbolTable
  0
STYLE
  5
160
100
AcDbSymbolTableRecord
100
AcDbTextStyleTableRecord
  2
Standard
  3
txt
 70
0
 71
0
 40
0.000000
 41
0.750000
 42
0.000000
 50
0.000000
  0
ENDTAB
  0
TABLE
  2
VIEW
  5
161
100
AcDbSymbolTable
 70
0
 40
114.744649
 41
21.718412
  0
ENDTAB
  0
TABLE
  2
UCS
  5
162
100
AcDbSymbolTable
 70
0
  0
ENDTAB
  0
TABLE
  2
APPID
  5
9
100
AcDbSymbolTable
 70
1
  0
APPID
  5
12
100
AcDbSymbolTableRecord
100
AcDbRegAppTableRecord
  2
ACAD
 70
0
  0
ENDTAB
  0
TABLE
  2
DIMSTYLE
  5
A
100
AcDbSymbolTable
 70
1
 71
0
  0
DIMSTYLE
105
27
100
AcDbSymbolTableRecord
100
AcDbDimStyleTableRecord
 70
0
  2
Standard
176
5
 46
0.000000
177
5
 44
0.049213
 42
0.024606
  6
ClosedFilled
  7
ClosedFilled
 41
0.098425
340
0
178
5
140
0.098425
 77
1
147
0.024606
  0
ENDTAB
  0
TABLE
  2
BLOCK_RECORD
  5
163
100
AcDbSymbolTable
 70
1
  0
BLOCK_RECORD
  5
164
100
AcDbSymbolTableRecord
100
AcDbBlockTableRecord
  2
*Model_Space
340
22
  0
BLOCK_RECORD
  5
165
100
AcDbSymbolTableRecord
100
AcDbBlockTableRecord
  2
*Paper_Space
340
1E
  0
BLOCK_RECORD
  5
166
100
AcDbSymbolTableRecord
100
AcDbBlockTableRecord
  2
*Paper_Space0
340
26
  0
BLOCK_RECORD
  5
167
100
AcDbSymbolTableRecord
100
AcDbBlockTableRecord
  2
CHAMBER_COUNTOR
340
26
  0
ENDTAB
  0
ENDSEC
  0
SECTION
  2
BLOCKS
  0
BLOCK
  5
168
100
AcDbEntity
  8
0
100
AcDbBlockBegin
  2
*Model_Space
 70
1
 10
0.000000
 20
0.000000
  3
*Model_Space
  0
ENDBLK
  5
169
100
AcDbEntity
  8
0
100
AcDbBlockEnd
  0
BLOCK
  5
16A
100
AcDbEntity
  8
0
100
AcDbBlockBegin
  2
*Paper_Space
 70
1
 10
0.000000
 20
0.000000
  3
*Paper_Space
  0
ENDBLK
  5
16B
100
AcDbEntity
  8
0
100
AcDbBlockEnd
  0
BLOCK
  5
16C
100
AcDbEntity
  8
0
100
AcDbBlockBegin
  2
*Paper_Space0
 70
1
 10
0.000000
 20
0.000000
  3
*Paper_Space0
  0
ENDBLK
  5
16D
100
AcDbEntity
  8
0
100
AcDbBlockEnd
  0
BLOCK
  5
16E
100
AcDbEntity
  8
0
100
AcDbBlockBegin
  2
CHAMBER_COUNTOR
 70
1
 10
0.000000
 20
0.000000
  3
CHAMBER_COUNTOR
  0
LINE
  5
16F
100
AcDbEntity
100
AcDbLine
  8
0
 62
256
  6
ByLayer
370
-1
 10
0.000000
 20
0.684050
 30
0.000000
 11
2.640110
 21
0.684050
 31
0.000000
  0
LINE
  5
170
100
AcDbEntity
100
AcDbLine
  8
0
 62
256
  6
ByLayer
370
-1
 10
0.000000
 20
-0.684050
 30
0.000000
 11
2.640110
 21
-0.684050
 31
0.000000
  0
ARC
  5
171
100
AcDbEntity
100
AcDbCircle
  8
0
 62
256
  6
ByLayer
370
-1
 10
2.640110
 20
-0.017531
 40
0.701581
100
AcDbArc
 50
45.000000
 51
90.000000
  0
ARC
  5
172
100
AcDbEntity
100
AcDbCircle
  8
0
 62
256
  6
ByLayer
370
-1
 10
2.640110
 20
0.017531
 40
0.701581
100
AcDbArc
 50
270.000000
 51
315.000000
  0
LINE
  5
173
100
AcDbEntity
100
AcDbLine
  8
0
 62
256
  6
ByLayer
370
-1
 10
3.136203
 20
0.478562
 30
0.000000
 11
3.341691
 21
0.273074
 31
0.000000
  0
LINE
  5
174
100
AcDbEntity
100
AcDbLine
  8
0
 62
256
  6
ByLayer
370
-1
 10
3.136203
 20
-0.478562
 30
0.000000
 11
3.341691
 21
-0.273074
 31
0.000000
  0
ARC
  5
175
100
AcDbEntity
100
AcDbCircle
  8
0
 62
256
  6
ByLayer
370
-1
 10
3.542921
 20
0.474304
 40
0.284582
100
AcDbArc
 50
225.000000
 51
270.000000
  0
ARC
  5
176
100
AcDbEntity
100
AcDbCircle
  8
0
 62
256
  6
ByLayer
370
-1
 10
3.542921
 20
-0.474304
 40
0.284582
100
AcDbArc
 50
90.000000
 51
135.000000
  0
DIMENSION
  5
177
100
AcDbEntity
100
AcDbDimension
  8
Dimensions
 70
32
 62
256
  1
D1.3681
 10
-0.393701
 20
0.684050
 11
-0.472441
 21
0.000000
 53
90.000000
100
AcDbAlignedDimension
 13
0.000000
 23
-0.684050
 14
0.000000
 24
0.684050
 50
90.000000
100
AcDbRotatedDimension
  0
DIMENSION
  5
178
100
AcDbEntity
100
AcDbDimension
  8
Dimensions
 70
32
 62
256
  1
D0.3794
 10
4.911207
 20
0.189721
 11
4.832467
 21
0.000000
 53
90.000000
100
AcDbAlignedDimension
 13
3.542921
 23
-0.189721
 14
3.542921
 24
0.189721
 50
90.000000
100
AcDbRotatedDimension
  0
DIMENSION
  5
179
100
AcDbEntity
100
AcDbDimension
  8
Dimensions
 70
32
 62
256
 10
0.000000
 20
-1.077751
 11
1.320055
 21
-0.959641
100
AcDbAlignedDimension
 13
0.000000
 23
-0.684050
 14
2.640110
 24
-0.684050
 50
0.000000
100
AcDbRotatedDimension
  0
DIMENSION
  5
17A
100
AcDbEntity
100
AcDbDimension
  8
Dimensions
 70
32
 62
256
 10
0.000000
 20
-1.471452
 11
1.771460
 21
-1.353342
100
AcDbAlignedDimension
 13
0.000000
 23
-0.684050
 14
3.542921
 24
-0.189721
 50
0.000000
100
AcDbRotatedDimension
  0
DIMENSION
  5
17B
100
AcDbEntity
100
AcDbDimension
  8
Dimensions
 70
32
 62
256
 10
0.000000
 20
-1.865153
 11
2.258753
 21
-1.747042
100
AcDbAlignedDimension
 13
0.000000
 23
-0.684050
 14
4.517506
 24
-0.427528
 50
0.000000
100
AcDbRotatedDimension
  0
DIMENSION
  5
17C
100
AcDbEntity
100
AcDbDimension
  8
Dimensions
 70
4
 62
256
  1
R0.7016
 10
2.640110
 20
-0.017531
 11
2.514392
 21
1.155013
100
AcDbRadialDimension
 15
2.647323
 25
0.684013
  0
DIMENSION
  5
17D
100
AcDbEntity
100
AcDbDimension
  8
Dimensions
 70
4
 62
256
  1
R0.2846
 10
3.542921
 20
0.474304
 11
3.399374
 21
-0.087256
100
AcDbRadialDimension
 15
3.539995
 25
0.189736
  0
DIMENSION
  5
17E
100
AcDbEntity
100
AcDbDimension
  8
Dimensions
 70
2
 62
256
 10
3.341691
 20
0.000000
 11
2.452152
 21
0.358921
100
AcDb2LineAngularDimension
 13
3.341691
 23
0.273074
 14
3.136203
 24
0.478562
 15
3.136203
 25
0.000000
 16
2.452152
 26
0.358921
  0
ARC
  5
17F
100
AcDbEntity
100
AcDbCircle
  8
0
 62
256
  6
ByLayer
370
-1
 10
3.542921
 20
0.262195
 40
0.072474
100
AcDbArc
 50
270.000000
 51
289.835378
  0
ARC
  5
180
100
AcDbEntity
100
AcDbCircle
  8
0
 62
256
  6
ByLayer
370
-1
 10
3.542921
 20
-0.262195
 40
0.072474
100
AcDbArc
 50
70.164622
 51
90.000000
  0
SPLINE
  5
181
  8
0
100
AcDbEntity
100
AcDbSpline
 70
8
 71
2
 72
6
 73
3
 40
0
 40
0
 40
0
 40
1
 40
1
 40
1
 10
3.567513
 20
0.194021
 10
4.021660
 20
0.357841
 10
4.517506
 20
0.427528
  0
SPLINE
  5
182
  8
0
100
AcDbEntity
100
AcDbSpline
 70
8
 71
2
 72
6
 73
3
 40
0
 40
0
 40
0
 40
1
 40
1
 40
1
 10
3.567513
 20
-0.194021
 10
4.021660
 20
-0.357841
 10
4.517506
 20
-0.427528
  0
DIMENSION
  5
183
100
AcDbEntity
100
AcDbDimension
  8
Dimensions
 70
32
 62
256
  1
D0.8551
 10
5.304907
 20
0.000000
 11
5.226167
 21
0.000000
 53
90.000000
100
AcDbAlignedDimension
 13
4.517506
 23
-0.427528
 14
4.517506
 24
0.427528
 50
90.000000
100
AcDbRotatedDimension
  0
DIMENSION
  5
184
100
AcDbEntity
100
AcDbDimension
  8
Dimensions
 70
5
 62
256
 10
4.950577
 20
0.487800
 11
4.517506
 21
0.487800
100
AcDb3PointAngularDimension
 15
4.517506
 25
0.427528
 13
4.560813
 23
0.427528
 14
4.560392
 24
0.433555
  0
DIMENSION
  5
185
100
AcDbEntity
100
AcDbDimension
  8
Dimensions
 70
4
 62
256
  1
R0.0725
 10
3.542921
 20
0.262195
 11
3.682292
 21
-0.086490
100
AcDbRadialDimension
 15
3.543249
 25
0.189722
  0
DIMENSION
  5
186
100
AcDbEntity
100
AcDbDimension
  8
Dimensions
 70
2
 62
256
 10
3.567513
 20
0.194021
 11
4.102909
 21
0.348434
100
AcDb2LineAngularDimension
 13
3.567513
 23
0.000000
 14
3.757234
 24
0.000000
 15
3.745978
 25
0.258397
 16
4.102909
 26
0.348434
  0
LINE
  5
187
100
AcDbEntity
100
AcDbLine
  8
0
 62
3
  6
CENTER2
370
-1
 10
0.000000
 20
0.000000
 30
0.000000
 11
4.517506
 21
0.000000
 31
0.000000
  0
TEXT
  5
188
100
AcDbEntity
  8
Dimensions
 62
3
  6
ByLayer
100
AcDbText
 10
0.000000
 20
-2.396032
 40
0.196850
  1
Nescius Block 0
 50
0.000000
100
AcDbText
  0
ENDBLK
  5
189
100
AcDbEntity
  8
0
100
AcDbBlockEnd
  0
ENDSEC
  0
SECTION
  2
ENTITIES
  0
INSERT
  5
18A
100
AcDbEntity
100
AcDbBlockReference
  8
0
 62
3
  6
ByLayer
  2
CHAMBER_COUNTOR
 10
0.000000
 20
0.000000
 42
1.000000
 43
1.000000
 44
1.000000
 45
1.000000
  0
ENDSEC
  0
SECTION
  2
OBJECTS
  0
DICTIONARY
  5
C
100
AcDbDictionary
280
0
281
1
  3
ACAD_GROUP
350
D
  3
ACAD_LAYOUT
350
1A
  3
ACAD_MLINESTYLE
350
17
  3
ACAD_PLOTSETTINGS
350
19
  3
ACAD_PLOTSTYLENAME
350
E
  3
AcDbVariableDictionary
350
73
  0
DICTIONARY
  5
D
100
AcDbDictionary
280
0
281
1
  0
ACDBDICTIONARYWDFLT
  5
E
100
AcDbDictionary
281
1
  3
Normal
350
F
100
AcDbDictionaryWithDefault
340
F
  0
ACDBPLACEHOLDER
  5
F
100
AcDbPlaceHolder
  0
DICTIONARY
  5
17
100
AcDbDictionary
280
0
281
1
  3
Standard
350
18
  0
MLINESTYLE
  5
18
100
AcDbMlineStyle
  2
STANDARD
 70
0
  3

 62
256
 51
90.0
 52
90.0
 71
2
 49
0.5
 62
256
  6
BYLAYER
 49
-0.5
 62
256
  6
BYLAYER
  0
DICTIONARY
  5
19
100
AcDbDictionary
280
0
281
1
  0
DICTIONARY
  5
1A
100
AcDbDictionary
281
1
  3
Layout1
350
1E
  3
Layout2
350
26
  3
Model
350
22
  0
ENDSEC
  0
EOF
